<svg width="1298" height="728" viewBox="0 0 1298 728" fill="none" xmlns="http://www.w3.org/2000/svg">
<g clip-path="url(#clip0_23_1687)">
<mask id="mask0_23_1687" style="mask-type:luminance" maskUnits="userSpaceOnUse" x="0" y="0" width="1312" height="738">
<path d="M1312 0H0V738H1312V0Z" fill="white"/>
</mask>
<g mask="url(#mask0_23_1687)">
<path d="M1518.25 682.646H-203.685" stroke="white" stroke-opacity="0.1" stroke-width="1.46574"/>
<path d="M1518.25 633.959H-203.685" stroke="white" stroke-opacity="0.1" stroke-width="1.46574"/>
<path d="M1518.25 585.271H-203.685" stroke="white" stroke-opacity="0.1" stroke-width="1.46574"/>
<path d="M1518.25 536.584H-203.685" stroke="white" stroke-opacity="0.1" stroke-width="1.46574"/>
<path d="M1518.25 487.896H-203.685" stroke="white" stroke-opacity="0.1" stroke-width="1.46574"/>
<path d="M1518.25 439.209H-203.685" stroke="white" stroke-opacity="0.1" stroke-width="1.46574"/>
<path d="M1518.25 390.521H-203.685" stroke="white" stroke-opacity="0.1" stroke-width="1.46574"/>
<path d="M1518.25 341.834H-203.685" stroke="white" stroke-opacity="0.1" stroke-width="1.46574"/>
<path d="M1518.25 293.147H-203.685" stroke="white" stroke-opacity="0.1" stroke-width="1.46574"/>
<path d="M1518.25 244.459H-203.685" stroke="white" stroke-opacity="0.1" stroke-width="1.46574"/>
<path d="M1518.25 195.771H-203.685" stroke="white" stroke-opacity="0.1" stroke-width="1.46574"/>
<path d="M1518.25 147.084H-203.685" stroke="white" stroke-opacity="0.1" stroke-width="1.46574"/>
<path d="M1518.25 98.3965H-203.685" stroke="white" stroke-opacity="0.1" stroke-width="1.46574"/>
<path d="M1518.25 49.709L-203.685 49.7091" stroke="white" stroke-opacity="0.1" stroke-width="1.46574"/>
<path d="M1518.25 1.02148L-203.685 1.02164" stroke="white" stroke-opacity="0.1" stroke-width="1.46574"/>
<path d="M-0.732346 1006.55L-0.732422 -715.384" stroke="white" stroke-opacity="0.1" stroke-width="1.46574"/>
<path d="M47.9552 1006.55L47.9551 -715.384" stroke="white" stroke-opacity="0.1" stroke-width="1.46574"/>
<path d="M96.6426 1006.55V-715.384" stroke="white" stroke-opacity="0.1" stroke-width="1.46574"/>
<path d="M145.331 1006.55V-715.384" stroke="white" stroke-opacity="0.1" stroke-width="1.46574"/>
<path d="M194.018 1006.55V-715.384" stroke="white" stroke-opacity="0.1" stroke-width="1.46574"/>
<path d="M242.706 1006.55V-715.384" stroke="white" stroke-opacity="0.1" stroke-width="1.46574"/>
<path d="M291.393 1006.55V-715.384" stroke="white" stroke-opacity="0.1" stroke-width="1.46574"/>
<path d="M340.081 1006.55V-715.384" stroke="white" stroke-opacity="0.1" stroke-width="1.46574"/>
<path d="M388.768 1006.55V-715.384" stroke="white" stroke-opacity="0.1" stroke-width="1.46574"/>
<path d="M437.456 1006.55V-715.384" stroke="white" stroke-opacity="0.1" stroke-width="1.46574"/>
<path d="M486.143 1006.55V-715.384" stroke="white" stroke-opacity="0.1" stroke-width="1.46574"/>
<path d="M534.831 1006.55V-715.384" stroke="white" stroke-opacity="0.1" stroke-width="1.46574"/>
<path d="M583.518 1006.55V-715.384" stroke="white" stroke-opacity="0.1" stroke-width="1.46574"/>
<path d="M632.206 1006.55V-715.384" stroke="white" stroke-opacity="0.1" stroke-width="1.46574"/>
<path d="M680.893 1006.55V-715.384" stroke="white" stroke-opacity="0.1" stroke-width="1.46574"/>
<path d="M729.581 1006.55V-715.384" stroke="white" stroke-opacity="0.1" stroke-width="1.46574"/>
<path d="M778.268 1006.55V-715.384" stroke="white" stroke-opacity="0.1" stroke-width="1.46574"/>
<path d="M826.956 1006.55V-715.384" stroke="white" stroke-opacity="0.1" stroke-width="1.46574"/>
<path d="M875.643 1006.55V-715.384" stroke="white" stroke-opacity="0.1" stroke-width="1.46574"/>
<path d="M924.332 1006.55V-715.384" stroke="white" stroke-opacity="0.1" stroke-width="1.46574"/>
<path d="M973.021 1006.55V-715.384" stroke="white" stroke-opacity="0.1" stroke-width="1.46574"/>
<path d="M1021.7 1006.55V-715.384" stroke="white" stroke-opacity="0.1" stroke-width="1.46574"/>
<path d="M1070.39 1006.55V-715.384" stroke="white" stroke-opacity="0.1" stroke-width="1.46574"/>
<path d="M1119.08 1006.55V-715.384" stroke="white" stroke-opacity="0.1" stroke-width="1.46574"/>
<path d="M1167.77 1006.55V-715.384" stroke="white" stroke-opacity="0.1" stroke-width="1.46574"/>
<path d="M1216.45 1006.55V-715.384" stroke="white" stroke-opacity="0.1" stroke-width="1.46574"/>
<path d="M1265.14 1006.55V-715.384" stroke="white" stroke-opacity="0.1" stroke-width="1.46574"/>
</g>
</g>
<defs>
<clipPath id="clip0_23_1687">
<rect width="1312" height="738" fill="white"/>
</clipPath>
</defs>
</svg>
